<?xml version="1.0" encoding="utf-8"?>
<!-- Generator: Adobe Illustrator 21.1.0, SVG Export Plug-In . SVG Version: 6.00 Build 0)  -->
<svg version="1.1" id="Layer_6" xmlns="http://www.w3.org/2000/svg" xmlns:xlink="http://www.w3.org/1999/xlink" x="0px" y="0px"
	 viewBox="0 0 100 100" style="enable-background:new 0 0 100 100;" xml:space="preserve">
<style type="text/css">
	.st0{fill:#010101;}
</style>
<g>
	<path class="st0" d="M41.7,18.1l9.5-9.5v52c0,1.3,0.9,2.2,2.2,2.2c1.3,0,2.2-0.9,2.2-2.2v-52l9.5,9.5c0.4,0.4,0.9,0.7,1.5,0.7
		c0.7,0,1.1-0.2,1.5-0.7c0.9-0.9,0.9-2.2,0-3.1L54.9,1.8c-0.2-0.2-0.4-0.4-0.7-0.4c-0.4-0.2-1.1-0.2-1.8,0c-0.2,0.2-0.4,0.2-0.7,0.4
		L38.6,15c-0.9,0.9-0.9,2.2,0,3.1C39.5,19,40.8,19,41.7,18.1z M84.2,27.6H66.6V32h17.6v61.7H22.5V32h17.6v-4.4H22.5
		c-2.4,0-4.4,2-4.4,4.4v61.7c0,2.4,2,4.4,4.4,4.4h61.7c2.4,0,4.4-2,4.4-4.4V32C88.6,29.6,86.6,27.6,84.2,27.6z"/>
</g>
</svg>
