<?xml version="1.0" encoding="utf-8"?>
<!-- Generator: Adobe Illustrator 21.1.0, SVG Export Plug-In . SVG Version: 6.00 Build 0)  -->
<svg version="1.1" id="Layer_3" xmlns="http://www.w3.org/2000/svg" xmlns:xlink="http://www.w3.org/1999/xlink" x="0px" y="0px"
	 viewBox="0 0 100 100" style="enable-background:new 0 0 100 100;" xml:space="preserve">
<style type="text/css">
	.st0{fill:#010101;}
</style>
<g>
	<path class="st0" d="M65.6,22.2c-5.1,0-10.3,1.9-14.1,5.8c-3.9-3.9-9-5.8-14.1-5.8S27.2,24.1,23.3,28c-7.8,7.8-7.8,20.5,0,28.3
		l28.2,28.3l28.3-28.3c3.9-3.9,5.8-9,5.8-14.1S83.7,32,79.8,28.1C75.9,24.1,70.8,22.2,65.6,22.2z M75.5,52.1l-24,24l-24-24
		c-2.6-2.6-4.1-6.1-4.1-9.9c0-3.8,1.4-7.3,4.1-9.9c2.6-2.6,6.1-4.1,9.9-4.1c3.8,0,7.3,1.4,9.9,4.1l4.2,4.3l4.2-4.2
		c2.6-2.6,6.1-4.1,9.9-4.1s7.3,1.4,9.9,4.1c2.6,2.6,4.1,6.1,4.1,9.9S78.2,49.4,75.5,52.1z"/>
</g>
</svg>
