<?xml version="1.0" encoding="utf-8"?>
<!-- Generator: Adobe Illustrator 21.1.0, SVG Export Plug-In . SVG Version: 6.00 Build 0)  -->
<svg version="1.1" id="Layer_4" xmlns="http://www.w3.org/2000/svg" xmlns:xlink="http://www.w3.org/1999/xlink" x="0px" y="0px"
	 viewBox="0 0 100 100" style="enable-background:new 0 0 100 100;" xml:space="preserve">
<style type="text/css">
	.st0{fill:#010101;}
</style>
<g transform="translate(0,-952.36218)">
	<path class="st0" d="M72.3,1038.5c1.5-0.2,2.6-1.6,2.4-3.2c0,0,0-0.1,0-0.1l-3.6-22l15.7-15.7c1.1-1.1,1.1-2.9,0-4
		c-0.4-0.4-1-0.7-1.6-0.8l-21.8-3.4l-9.9-19.9c-0.7-1.4-2.4-2-3.8-1.3c-0.5,0.3-1,0.7-1.2,1.3l-9.9,19.9l-21.8,3.4
		c-1.5,0.2-2.6,1.7-2.3,3.2c0.1,0.6,0.4,1.1,0.8,1.6l15.7,15.7l-3.6,22c-0.3,1.5,0.8,3,2.3,3.3c0.6,0.1,1.2,0,1.8-0.3l19.6-10.2
		l19.6,10.2C71.1,1038.4,71.7,1038.5,72.3,1038.5L72.3,1038.5z M68.3,1030.5l-15.9-8.3c-0.8-0.4-1.8-0.4-2.6,0l-15.9,8.3l2.9-17.8
		c0.1-0.9-0.2-1.8-0.8-2.5l-12.8-12.7l17.7-2.7c0.9-0.1,1.7-0.7,2.1-1.5l8.1-16.2l8.1,16.2c0.4,0.8,1.2,1.4,2.1,1.5l17.7,2.7
		l-12.8,12.7c-0.6,0.6-0.9,1.6-0.8,2.5C65.3,1012.7,68.3,1030.5,68.3,1030.5z"/>
</g>
</svg>
