<svg version="1" xmlns="http://www.w3.org/2000/svg" width="426.667" height="426.667" viewBox="0 0 320.000000 320.000000"><path d="M224.5 10.1c-9.8 1.2-21.3 5.9-28.4 11.7-4.3 3.4-1.5 4.4 4.7 1.5 18-8.1 31.6-9.6 41.7-4.5 12.9 6.5 19.1 18.5 20.9 40.7 1 12.6 3.5 19.5 8.9 25.2 3.2 3.4 6.7 4.4 6.7 1.9 0-.8-1.5-3.7-3.4-6.5-3.6-5.3-5.1-10.7-6.1-22.5-1.5-17.7-5.3-28.2-13.3-36.4-8.3-8.6-19.6-12.5-31.7-11.1zM128.5 12.4c-13.6 3.7-19.3 7.1-46.5 27.3-9.1 6.8-17.4 12.9-18.5 13.7-2 1.5-1.9 1.5.5 1.6 3.3 0 15.1-6.8 27-15.6 25.8-19.1 37-23.7 56-23 13.9.6 21.1 2.5 29.7 7.9 4.1 2.6 10.3 8.6 10.3 9.9 0 1.5 4.8.8 5.4-.8 1.1-3-7.7-12.5-15.1-16.2-13.5-6.9-33.8-8.9-48.8-4.8z"/><path d="M210.9 22.3c-9 2.5-18.2 9.6-14.5 11 .8.3 2.2-.1 3.3-.8 5.8-4 21.6-5.9 29.1-3.4 12.8 4.2 20.9 14.7 23.3 29.9 3.7 24.3 7.6 32.2 17.2 34.5 3.7 1 3.5-.9-.3-4.2-5.4-4.5-8.4-12.3-9.5-24.3-1-10.7-1.4-12.6-3.6-18.4-5.4-14.6-18.4-24.1-34.4-25.2-3.3-.2-8.1.2-10.6.9zM137.5 24c-13.1 2-26.5 7.9-43.3 19.2-21.9 14.7-31.4 18.6-44.5 18.3-4-.1-5.7.2-5.7 1.1 0 2.8 12.4 4.8 20.8 3.3 6.3-1.2 20.6-8.3 32.2-16.2 12.4-8.3 18.9-11.9 27.8-15.1 9.7-3.4 11.1-3.7 22.7-4.1 11.3-.4 17.2.8 27.9 5.7 6.5 3.1 6.9 3.1 8.2 1.4 1.9-2.6.3-5.1-4.9-7.7-11.3-5.8-27.3-8.1-41.2-5.9z"/><path d="M38.3 31c-10.8 5-16.1 19-12.1 32.2 1.7 5.7 8.7 13.1 15 15.8 6.5 2.9 19.6 3.5 27.5 1.4 9.5-2.5 30.6-13.9 42.8-23.2 17.3-13.1 33.7-18.4 47.8-15.5 5.3 1.1 7.2 1.1 8.3.2 6.7-5.6-12.8-10.4-28.1-6.9-10.4 2.4-19.7 7.3-39.5 21.1-20.6 14.3-31.3 18.7-44.6 18.5-9.6-.2-17.3-3.9-21-10.2C28.3 54 33.2 37.6 43 35.6c6.3-1.2 12.2 4 10.4 9.1-1 2.8-2.5 3.9-6.7 4.8-3.7.8-2.5 2.5 1.8 2.5 7.3 0 11.7-7.7 8.5-14.8-3.1-6.8-11.4-9.5-18.7-6.2zM193 38c-9.3 1.9-24 8.5-24 10.8 0 .8.7 1.1 1.8.8.9-.3 2.8-.7 4.2-1 1.4-.2 6.1-1.4 10.5-2.6 20.2-5.5 34.9-3.4 45.1 6.5 10.7 10.5 14.1 22 15.9 53.5.6 11.5 2.7 24.8 5 32.4 2.5 8.3 1 6.2-2.9-4.1-3.7-9.4-3.8-10.2-4.2-25.3-.5-18.1-.9-22.5-3-30-4.8-16.8-17.7-29.6-32.5-31.9-5-.8-17.8-.6-21.9.4-1.4.3-3.2.8-4 1-.8.2-2.1.4-2.7.4-.7.1-1.3.7-1.3 1.4 0 .9 2.7 1.3 10.3 1.5 13.8.2 19.3 1 25.2 3.7 10.1 4.4 18.5 16 21.5 29.5.7 3 1.4 12.8 1.6 21.7.4 18.3.8 20.4 7.2 35.8 4 9.7 4.5 11.9 4.5 18.7.1 6.8-.2 8.1-2.7 11.7-1.6 2.2-3.9 4.7-5.2 5.6-4.8 3.1.1 4.8 5.6 2 4.4-2.3 8-9.3 8.9-17.2l.8-6.8.2 6.6c0 3.8-.6 8.6-1.5 11.3-1.8 5.1-7 11.1-11 12.6-2.7 1.1-3.1 2.8-.9 3.6 4.3 1.7 12.1-4 16-11.6 2.3-4.5 4.2-12.6 3.9-16.5-.6-7.9-2.3-16.1-5-24.3-.8-2.4-1.7-6-2-8-.3-2.1-.9-4.2-1.2-4.7-.5-1 6.1 4.9 16.2 14.4 4.6 4.2 8.1 10.2 9.2 15.4.9 4.5.6 18.3-.5 22.3-1.8 6.5-6.5 12.6-16.8 21.5-5.7 4.9-11.2 10.8-13.4 14.2-3.6 5.5-6.5 14.8-5.3 16.8.9 1.5 2.1.2 2.8-3.2 1-5 6.6-11.6 17.6-20.8 19-15.9 23-23.6 22.5-42.6-.2-9.7-.6-11.8-3.2-17.5-2.9-6.3-5.2-8.9-18.4-20.5-2.5-2.2-5.6-5.6-6.9-7.5-1.4-1.9 3.3 1.9 10.2 8.4 14.4 13.5 16.8 16.6 19.7 25.3 3.7 11.1 2.9 22.3-2.5 32.9-2.6 5.1-3.1 7-2.1 7.6 2.5 1.6 8.8-8.7 11.3-18.2 1.2-4.6 1.5-8.8 1.1-14.5-.9-15-5.8-23.3-22.2-37.5-9.3-8.1-14.7-13.8-17-18-.4-.8.7-.1 2.6 1.6 1.9 1.7 8 6.1 13.6 9.8 10.9 7.1 15.1 11.8 18 20.1 1.1 3.3 2 4.5 3.5 4.5 1.8 0 2-.5 1.5-4.9-1.1-10-6.5-16.6-21.8-26.7-15.8-10.4-21-17.5-25.4-35-3.4-13.5-8.6-21.9-18-29-10.1-7.6-22.7-9.7-38.5-6.4zm61.9 111.5c0 .5-.4.3-.9-.5s-.9-2.2-.9-3c0-1.6 1.7 1.6 1.8 3.5z"/><path d="M17.1 50.4c-2.6 10.4 0 20.6 6.7 26.9 5.6 5.3 9.9 1.2 4.4-4.1-1.6-1.6-3.7-4.1-4.7-5.6-1.9-2.8-4.4-12-4-14.6.2-.8.4-2.6.6-3.9.7-4.4-1.8-3.3-3 1.3zM147.8 46.6c-.2.1-2.1.5-4.3.8-8.1 1.3-20.2 5.6-27 9.7-3.8 2.3-11.8 7.9-17.6 12.5-20.2 15.8-31.6 21.3-44 21.4-7.5 0-12-1.2-16.6-4.6-3.7-2.8-4.3-2.9-4.3-.8 0 .9 1.7 3.3 3.8 5.4 9.3 9.3 28.5 8.6 45.7-1.8 3.3-2 12.5-8.5 20.4-14.5 16.1-12.2 24.6-16.8 35.9-19.3 13.6-2.9 15.7-3.7 15.7-5.9 0-1.5-.9-2.1-3.7-2.6-2.1-.3-3.9-.5-4-.3zM10.6 66.8c-.6 1 1.6 9.9 3.2 12.9 2.2 4 7.3 7.4 10.6 7.1 4.1-.4 4-2.8-.1-4.9-5-2.5-6.2-3.8-9.4-10.1-3-5.9-3.4-6.4-4.3-5z"/><path d="M101.3 80.7c-2.2.8-6.5 3.5-9.5 6.1-13.9 12.2-21.3 16.1-32.3 16.9-5.7.5-8.7.1-14.2-1.6-3.9-1.1-7.6-2.8-8.3-3.6-1.3-1.6-4-2.1-4-.7 0 1.7 7.8 8.2 12.2 10.2 13.9 6.1 31 1.1 46.8-13.7 4.5-4.3 9.7-8.8 11.6-10.1 5.6-3.8 4.3-5.8-2.3-3.5zM13 89.4c0 2 3.8 6.5 6.8 7.9 3.1 1.5 6.8 1.5 8.4-.1 1.6-1.6.1-3-4.2-3.7-2.3-.4-5.4-1.8-6.9-3.1-3.3-2.8-4.1-3-4.1-1zM129.8 97.6c-8.5 2-19.1 7.4-17.5 9 .3.4 3.7-.3 7.4-1.5 10.3-3.2 13.3-3.2 22.4 0 9.5 3.3 15.6 6.6 22.2 12.1 5.4 4.5 11.1 5.6 13 2.6 3.1-4.8-16.4-20.2-28.3-22.3-7-1.2-13.7-1.2-19.2.1zM287 96.6c0 .3 3.1 3.9 6.8 7.9 19.4 20.8 22 43.6 7.2 63.9-2.6 3.5-3 6.6-1 6.6s6.9-5.4 9.8-10.8c9.4-17.6 6.8-39.5-6.6-56-5.4-6.5-16.2-14.3-16.2-11.6z"/><path d="M279.7 98.8c-.3.4 1.7 3.2 4.4 6.2 12.3 13.6 16.4 23 16.2 36.5-.1 4.9-.3 10.1-.5 11.5-.5 4.1 3.2 3.3 4.8-1 3.1-8.6 1-23.3-4.9-34.4-4.7-8.9-18.3-21.7-20-18.8zM13.4 102.5c-.9 3.6.2 11.8 2 15.2 3.4 6.6 10.4 12.1 18.6 14.4l4.5 1.3-3.3.4c-6.3.7-14-1.7-17.7-5.4-4-4-4.5-4.1-4.5-1.3 0 3.4 7.8 10.5 13 11.9 5.5 1.5 12.8 1.4 18.1-.1 5.1-1.6 6.5-3.2 4.4-5.2-1-1.1-1.1-1.7-.3-1.9.6-.2.9-1.1.6-1.9-.4-.9-3.6-2.2-8.4-3.2-4.4-.9-9.8-2.9-12.1-4.3-5-2.9-9.1-9.4-10.8-16.7-1.3-5.7-3.1-7.1-4.1-3.2z"/><path d="M78.3 106.9c-16.7 8.6-28.2 9.3-41.6 2.5-5.5-2.7-5.7-2.8-5.7-1.4 0 1.8 6.4 7.3 11 9.3 2.6 1.2 7.7 2.3 12 2.6 5.5.3 6.7.7 4.5 1.1-5 1.1-13.8.4-19.4-1.5-8.8-2.9-7.9.6 1.2 4.5 3.5 1.6 7.3 2.3 11.9 2.4 5.7.1 6.5.3 5.1 1.3-.9.7-2.5 1.3-3.5 1.3s-1.8.7-1.8 1.6c0 1.7 1.9 1.6 10-.1 2.7-.7 3.1-1-5.4 5.7-4.1 3.2-.4 3.2 6.2-.1 8.5-4.2 14.2-8.7 14.2-11.2 0-1-.4-1.9-1-1.9-1.5 0-1.2-2.6.4-4 .8-.6 1.3-1.7 1-2.4-.3-.8 1.5-2.6 4.4-4.5 6.2-3.9 8.6-6.6 7.9-8.6-.8-2.1-.9-2-11.4 3.4zM127.2 120c.4 2.4.2 2.7-.9 1.9-.7-.7-1.3-1.8-1.3-2.5 0-.8-.6-1.4-1.4-1.4-1 0-1.3.8-1.1 2.2l.4 2.3-1.9-2.3c-2.3-2.7-4.1-2.2-3.2 1 .4 1.8.2 2-1.6 1.5-7.3-2.3-6.8-2.3-5.1.3.8 1.3 3 3.1 4.9 4.1 2.2 1.2 3.8 3.1 4.6 5.5 1.6 4.5 5.9 9.2 10.2 11.1 4.6 1.9 11.2 2.8 11.2 1.4 0-.6-.1-1.2-.2-1.4-.2-.1 1.1-1.6 2.8-3.2 1.7-1.7 3.7-4 4.6-5.3l1.6-2.3 4 6c3 4.6 4.3 5.7 5.1 4.8 1.4-1.8-2.7-10.3-7.2-14.5-1.9-1.9-5.2-3.9-7.3-4.7-2.2-.7-4.3-2.2-4.9-3.4-1.5-3.3-3.3-2.3-2.5 1.4.1.6-.4.5-1-.1s-1.3-2-1.4-3c-.4-2.9-2.6-2.9-2.6 0 0 3.3-1.3 3.3-3 .1-1.8-3.4-3.3-3.2-2.8.5zm2.3 13.6v4.5l-2.7-3.1c-1.6-1.6-2.8-3.7-2.8-4.5 0-1 1-1.5 2.8-1.5 2.5 0 2.7.3 2.7 4.6zm5.8-2.3c-.5 2.7 1.9 5.7 4.7 5.7 1 0 2.7-1.1 3.8-2.5 2.5-3.1 3.2-3.2 2.5-.3-.9 3.4-2.3 4.8-4.9 4.8-5.3 0-9.6-4-8.6-8.3.6-2.7 3-2.1 2.5.6zM147 121c0 .5.4 1 1 1 1.6 0 9.2 8.3 10.7 11.7 1.4 3.5 3 4.2 3.9 1.9 1.2-3-4.9-11.3-10.3-14-3.7-1.8-5.3-2-5.3-.6zM179.3 129.2c.3 2.3.2 5-.3 5.9-.7 1.2-.5 2.1.5 2.9 2.1 1.7 5.5-2.1 4.9-5.4-.8-4.7-2.3-7.6-4-7.6-1.4 0-1.6.7-1.1 4.2zM217.8 132.6c-1.6.8-2.8 2.3-2.8 3.4 0 1.4.7 1.8 2.8 1.8 8.5-.2 20.2 5.1 20.2 9.2 0 1.1.7 2 1.5 2 2.7 0 2-9.3-.9-12.7-4.2-4.9-15.1-6.9-20.8-3.7zM258 131.9c0 .5 1.6 3.2 3.5 6.1 8 11.9 9.5 28 3.7 40.3-2.9 6.3-5.3 9.1-18.2 21.2-8.9 8.4-13.1 17.4-13.6 29-.4 9.4 1.7 17.8 4.3 17.3 1.1-.2 1.5-2.7 1.7-11.8.4-17.1 1.9-19.9 21.1-38 3.2-3 6.8-7.1 8-9 9-14.3 9-32.8-.1-46.5-4.6-7-10.4-11.8-10.4-8.6zM62.9 139.2c-2 1.9-2.9 3.3-2.2 3.5 1.4.5 7.3-3.3 7.3-4.7 0-2.1-1.9-1.7-5.1 1.2zM201.6 145.4c-4.1 4.2-5.8 10.2-5.8 19.3 0 8.1.6 10.6 3.3 14.5 1.1 1.4 1.9 3.3 1.9 4.2 0 .9.7 1.6 1.5 1.6 2 0 1.9-2.5-.4-8.9-3.4-9.8-1.1-26.5 4.3-31 2.1-1.7 2-3.1 0-3.1-.9 0-3.1 1.5-4.8 3.4z"/><path d="M149 145.2c0 .8 1.3 1.5 3.1 1.6 2.1.2 3-.2 2.7-1-.6-1.8-5.8-2.3-5.8-.6zM31.6 146.8c-3.6 11.2.4 27.7 9 37.1 4.2 4.7 7.4 6.7 12.1 7.4 5.9.9 7.3-4.5 1.5-5.8-6.5-1.4-15.9-12.5-18.8-22.2-.8-2.7-1.5-7.6-1.6-11.1 0-6.2-1.1-8.9-2.2-5.4zM46.4 149.1c-1 1.8 4.2 5.9 7.4 5.9 6.5-.1 6.9-4.3.5-5.4-2.1-.4-4.5-.9-5.5-1.2-.9-.3-2 .1-2.4.7zM213.1 149.8c-1.9.9-3.7 2.3-3.9 3-.4 1.1 0 1.2 1.8.2 3.2-1.7 11-1.6 14.5.2 1.7.9 4.1 2.9 5.4 4.4l2.4 2.8.9-2.4c.7-1.8.3-2.9-1.4-4.8-4.8-5.2-13.4-6.7-19.7-3.4z"/><path d="M213 156.7c-4.6.7-11 3.5-11 4.9 0 .8.6 1.1 1.5.8 1-.4 1.5 0 1.5 1.5 0 2.4 3.7 6.1 6.2 6.1 1.1 0 1.5.5 1.2 1.4-.6 1.5 1.2 2.4 6.5 3.2 1.9.3 4.1 1.3 4.9 2.2 1 1.3 1.5 1.4 1.8.4.3-.6 1.2-1.2 1.9-1.2.9 0 1.3-1.1 1.3-3.1-.1-2.9-.3-3-3.2-2.5-1.7.3-4.9.9-7.1 1.2l-4 .6 3.2-2.1c1.7-1.1 3.7-3 4.3-4.1l1.2-2.2 2.6 2.5c5.1 4.6 10.7 6.4 14.8 4.5 3.3-1.5 2.5-3.2-2-3.9-2-.3-4.9-1.5-6.4-2.7-8.7-6.8-12.7-8.4-19.2-7.5zm-2 8.8c1.9 1.2 6-.4 6.9-2.7.4-1.2 1-1.7 1.3-1.2 1.1 1.8-1.1 5.3-3.7 6-4.4 1.1-9.7-2.9-7.8-5.9.4-.6.9-.2 1.4 1 .4 1.2 1.3 2.4 1.9 2.8zM52.5 160c-.4 1.3 0 3.2 1.1 4.8 1 1.5 1.7 4.1 1.6 5.9-.3 4.1 1.1 4.9 3.7 2.1 2.8-2.9 1.7-8.9-2-10.9-1.1-.5-1.9-1.6-1.9-2.4 0-2.2-1.8-1.8-2.5.5zM65.6 173.8c-.3.5-.8 3.1-1.1 5.8-.3 2.7-.8 5.9-1 7-.4 2-.9 8.4-1.9 24.1-.8 12.5 3.9 31.4 11 44 14.7 26.4 30.5 42.3 48 48.4 9.5 3.4 25.9 2.8 25.2-.9-.3-1.3-1.6-1.7-6.1-1.9-11.6-.4-23.5-4.8-32.7-12.1-7-5.6-12.5-11.8-20.1-23.1-15.6-23-20-36.4-20.2-61.1-.1-8.5.1-18.7.5-22.7.7-6.4-.1-9.9-1.6-7.5zM155 186.9c-2.6 5 .9 11.1 6.6 11.1 2.4 0 3.4-.5 3.4-1.5 0-.9-.9-1.5-2.4-1.5-3.8 0-5.9-2.7-5.3-6.7.6-3.6-.6-4.4-2.3-1.4zM229.2 187.2c-.6.7-1.1 4.2-1.3 7.8-.6 17.2-8.8 33.4-31.2 62-7.5 9.6-12.9 15.4-20.8 22.1-3.5 3-7.2 6.2-8.4 7.2-1.1 1-5 4.1-8.7 7-3.8 2.8-6.8 5.7-6.8 6.4 0 1.7 4.1-.3 12.9-6.4 3.5-2.4 6.5-4.2 6.8-4 .2.3-.2 2.9-.9 5.8-1.6 6.1-1.8 16.7-.4 17.1.9.3 2.2-3.1 6.2-16.5 2.4-8.1 8.3-17.6 15.3-24.4 15.9-15.8 35.8-46.5 39.6-61 2-7.7 2.2-21 .3-23-1.2-1.1-1.7-1.2-2.6-.1zM168.1 192.4c-1.1 1.3-1.1 1.7.3 2.2 2.2.8 10.7-.8 10.7-2.1-.1-1.8-9.6-1.8-11-.1zM193.8 197.3c-3.7 1.9-5.8 3.7-5.8 4.8 0 2.5 2.1 3.5 3.2 1.5.5-.9 1.5-1.6 2.1-1.6.7 0 2.8-1.3 4.7-2.9 5.4-4.5 2.8-5.6-4.2-1.8zM52.1 201.7c-.6 2.1-1.3 6-1.7 8.8-.3 2.7-.8 6.1-1 7.5-.5 3.8-.5 30.1 0 33 .3 1.4.7 5 1.1 8.1.8 7.5 1 8.9 3.6 19.1 1.7 6.5 2.7 8.8 4.1 9.1 3 .8 3.3-1.7 1.4-11.7-4.1-22-4.4-26.7-4.1-52.4.2-20.7.1-25.2-1.1-25.2-.7 0-1.8 1.7-2.3 3.7zM198.3 202.8c-4.4 4.7-4.5 6.4-.2 4.2 2.1-1.2 5.3-6.7 4.1-7.3-.4-.3-2.2 1.1-3.9 3.1z"/><path d="M156.2 217.2c-4.9.8-11.7 4.7-20.7 11.8-7.5 5.8-9.9 7.2-11.8 6.4-2.6-1-2.8 1.4-.3 3.8 1.4 1.3 3.3 4.6 4.4 7.4 4.1 10.9 13.4 20.4 23.3 23.7 12.3 4.2 27.8-1.7 29.5-11.2.4-2 1.7-5.2 3-7.1 5.1-7.7 6.9-18.2 4-23.8-2.5-4.9-5-6.4-10-6.1-3.6.2-5-.1-6.6-1.9-1.8-1.9-3.8-2.7-9-3.6-.8-.1-3.4.1-5.8.6zm17.4 15.5c2.7 1.7 5.1 5.3 3.6 5.3-.5 0-1.5-.6-2.1-1.4-1.2-1.4-9.4-4.2-14.6-5-4.3-.6-4.4-.8-.5-1.5 4.2-.8 10.2.3 13.6 2.6zm-13.2 2.8c7.6.6 11.3 2.2 15 6.2l2.5 2.6-1.9 3.7c-1.1 2.1-2.7 4-3.7 4.4-1 .3-2.3.8-2.9 1.1-.7.3-2.3-1.3-3.7-3.7-3-5.2-6.3-8.3-7.1-6.9-.4.5.3 2.5 1.4 4.3 2.3 3.8 2.6 7.8.7 7.8-4.9 0-18.9-6.7-24.6-11.7-3-2.7-3.3-3.2-1.6-3.3 1.1-.1 4.7-1.4 8-2.9s7.1-2.7 8.5-2.5c1.4.1 5.6.5 9.4.9zM265.7 267.4c-2 .7-4.4 1.9-5.2 2.6-1.4 1.1-11.3.5-24.4-1.5-2.3-.4-2.3-.4-.5 1.7 1.1 1.2 4.7 5.1 8 8.6 6 6.4 6.2 6.6 6.6 13.1.6 7.6 2.1 11.1 7.3 16.3 4.9 4.9 11.9 7.2 19.6 6.5 22.8-2 29.9-31.6 10.8-44.6-4-2.8-5.9-3.4-11.6-3.7-4.3-.3-8.2.1-10.6 1zm17.8 4.3c19.7 10 13 39.5-9 39.5-6.1.1-12.1-2.7-16-7.3-3.7-4.5-4.7-7.4-4.9-14.1-.1-4.9-.5-6.1-3.6-9.5-7-7.8-6.9-7.5-2.4-6.9 11.4 1.6 12.3 1.6 15.9-.6 6.7-3.9 13.7-4.3 20-1.1z"/><path d="M264 281.3c0 .7 1.6 2.8 3.5 4.7 1.9 1.9 3.5 3.9 3.5 4.5 0 .6-1.6 2.6-3.5 4.5-3.5 3.4-4.5 6-2.3 6 .7 0 3.1-1.8 5.3-4l4.1-4 3.9 4c3.9 4 6.5 5.1 6.5 2.7 0-.7-1.8-3-3.9-5.1l-4-3.9 4-4.1c2.1-2.3 3.9-4.7 3.9-5.4 0-2.2-2.6-1.3-6 2.3-1.9 1.9-3.9 3.5-4.5 3.5-.6 0-2.6-1.6-4.5-3.5-3.5-3.6-6-4.5-6-2.2z"/></svg>